<svg width="19" height="18" viewBox="0 0 19 18" fill="none" xmlns="http://www.w3.org/2000/svg">
<path d="M7.95496 16.25C7.95496 16.9404 8.5146 17.5 9.20496 17.5C9.89531 17.5 10.455 16.9404 10.455 16.25H9.20496H7.95496ZM10.0888 0.366116C9.60068 -0.12204 8.80923 -0.12204 8.32107 0.366116L0.366121 8.32107C-0.122034 8.80922 -0.122034 9.60068 0.366121 10.0888C0.854277 10.577 1.64573 10.577 2.13389 10.0888L9.20496 3.01777L16.276 10.0888C16.7642 10.577 17.5556 10.577 18.0438 10.0888C18.5319 9.60068 18.5319 8.80922 18.0438 8.32107L10.0888 0.366116ZM9.20496 16.25H10.455V1.25H9.20496H7.95496L7.95496 16.25H9.20496Z" fill="white"/>
</svg>
